<mxfile host="app.diagrams.net" modified="2024-04-22T11:59:12.019Z" agent="Mozilla/5.0 (Windows NT 10.0; Win64; x64) AppleWebKit/537.36 (KHTML, like Gecko) Chrome/123.0.0.0 Safari/537.36" etag="3y8ur2bZSMpIKcm9ZZNY" version="24.2.7" type="device">
  <diagram name="Seite-1" id="dHSOoHLPUNbc5wcS4SJH">
    <mxGraphModel dx="2074" dy="1098" grid="1" gridSize="10" guides="1" tooltips="1" connect="1" arrows="1" fold="1" page="1" pageScale="1" pageWidth="827" pageHeight="1169" math="0" shadow="0">
      <root>
        <mxCell id="0" />
        <mxCell id="1" parent="0" />
        <mxCell id="6f7RqT7ciBoBhrbUa6Md-1" value="" style="rounded=1;whiteSpace=wrap;html=1;" parent="1" vertex="1">
          <mxGeometry x="120" y="60" width="300" height="270" as="geometry" />
        </mxCell>
        <mxCell id="6f7RqT7ciBoBhrbUa6Md-2" value="" style="shape=actor;whiteSpace=wrap;html=1;" parent="1" vertex="1">
          <mxGeometry x="560" y="100" width="40" height="50" as="geometry" />
        </mxCell>
        <mxCell id="6f7RqT7ciBoBhrbUa6Md-3" value="" style="shape=actor;whiteSpace=wrap;html=1;" parent="1" vertex="1">
          <mxGeometry x="560" y="170" width="40" height="50" as="geometry" />
        </mxCell>
        <mxCell id="6f7RqT7ciBoBhrbUa6Md-4" value="" style="shape=actor;whiteSpace=wrap;html=1;" parent="1" vertex="1">
          <mxGeometry x="560" y="240" width="40" height="50" as="geometry" />
        </mxCell>
        <mxCell id="6f7RqT7ciBoBhrbUa6Md-5" value="Users" style="text;strokeColor=none;fillColor=none;align=left;verticalAlign=middle;spacingLeft=4;spacingRight=4;overflow=hidden;points=[[0,0.5],[1,0.5]];portConstraint=eastwest;rotatable=0;whiteSpace=wrap;html=1;" parent="1" vertex="1">
          <mxGeometry x="610" y="110" width="80" height="30" as="geometry" />
        </mxCell>
        <mxCell id="6f7RqT7ciBoBhrbUa6Md-6" value="eProcessing" style="text;strokeColor=none;fillColor=none;align=left;verticalAlign=middle;spacingLeft=4;spacingRight=4;overflow=hidden;points=[[0,0.5],[1,0.5]];portConstraint=eastwest;rotatable=0;whiteSpace=wrap;html=1;" parent="1" vertex="1">
          <mxGeometry x="610" y="180" width="80" height="30" as="geometry" />
        </mxCell>
        <mxCell id="6f7RqT7ciBoBhrbUa6Md-7" value="Issuers" style="text;strokeColor=none;fillColor=none;align=left;verticalAlign=middle;spacingLeft=4;spacingRight=4;overflow=hidden;points=[[0,0.5],[1,0.5]];portConstraint=eastwest;rotatable=0;whiteSpace=wrap;html=1;" parent="1" vertex="1">
          <mxGeometry x="610" y="250" width="80" height="30" as="geometry" />
        </mxCell>
        <mxCell id="6f7RqT7ciBoBhrbUa6Md-22" style="edgeStyle=orthogonalEdgeStyle;rounded=0;orthogonalLoop=1;jettySize=auto;html=1;entryX=0;entryY=0.75;entryDx=0;entryDy=0;" parent="1" source="6f7RqT7ciBoBhrbUa6Md-9" target="6f7RqT7ciBoBhrbUa6Md-2" edge="1">
          <mxGeometry relative="1" as="geometry" />
        </mxCell>
        <mxCell id="6f7RqT7ciBoBhrbUa6Md-9" value="Add Investments" style="text;html=1;align=center;verticalAlign=middle;whiteSpace=wrap;rounded=1;fillColor=#f5f5f5;fontColor=#333333;strokeColor=#666666;" parent="1" vertex="1">
          <mxGeometry x="140" y="90" width="260" height="30" as="geometry" />
        </mxCell>
        <mxCell id="6f7RqT7ciBoBhrbUa6Md-23" style="edgeStyle=orthogonalEdgeStyle;rounded=0;orthogonalLoop=1;jettySize=auto;html=1;entryX=0;entryY=0.75;entryDx=0;entryDy=0;" parent="1" source="6f7RqT7ciBoBhrbUa6Md-10" target="6f7RqT7ciBoBhrbUa6Md-2" edge="1">
          <mxGeometry relative="1" as="geometry" />
        </mxCell>
        <mxCell id="6f7RqT7ciBoBhrbUa6Md-10" value="Track Investments" style="text;html=1;align=center;verticalAlign=middle;whiteSpace=wrap;rounded=1;fillColor=#f5f5f5;fontColor=#333333;strokeColor=#666666;" parent="1" vertex="1">
          <mxGeometry x="140" y="120" width="260" height="30" as="geometry" />
        </mxCell>
        <mxCell id="6f7RqT7ciBoBhrbUa6Md-24" style="edgeStyle=orthogonalEdgeStyle;rounded=0;orthogonalLoop=1;jettySize=auto;html=1;entryX=0;entryY=0.75;entryDx=0;entryDy=0;" parent="1" source="6f7RqT7ciBoBhrbUa6Md-11" target="6f7RqT7ciBoBhrbUa6Md-2" edge="1">
          <mxGeometry relative="1" as="geometry" />
        </mxCell>
        <mxCell id="6f7RqT7ciBoBhrbUa6Md-11" value="See Investment Overview" style="text;html=1;align=center;verticalAlign=middle;whiteSpace=wrap;rounded=1;fillColor=#f5f5f5;fontColor=#333333;strokeColor=#666666;" parent="1" vertex="1">
          <mxGeometry x="140" y="150" width="260" height="30" as="geometry" />
        </mxCell>
        <mxCell id="6f7RqT7ciBoBhrbUa6Md-25" style="edgeStyle=orthogonalEdgeStyle;rounded=0;orthogonalLoop=1;jettySize=auto;html=1;entryX=0;entryY=0.75;entryDx=0;entryDy=0;" parent="1" source="6f7RqT7ciBoBhrbUa6Md-12" target="6f7RqT7ciBoBhrbUa6Md-2" edge="1">
          <mxGeometry relative="1" as="geometry" />
        </mxCell>
        <mxCell id="6f7RqT7ciBoBhrbUa6Md-12" value="Update investment sums" style="text;html=1;align=center;verticalAlign=middle;whiteSpace=wrap;rounded=1;fillColor=#f5f5f5;fontColor=#333333;strokeColor=#666666;" parent="1" vertex="1">
          <mxGeometry x="140" y="180" width="260" height="30" as="geometry" />
        </mxCell>
        <mxCell id="6f7RqT7ciBoBhrbUa6Md-26" style="edgeStyle=orthogonalEdgeStyle;rounded=0;orthogonalLoop=1;jettySize=auto;html=1;entryX=0;entryY=0.75;entryDx=0;entryDy=0;" parent="1" source="6f7RqT7ciBoBhrbUa6Md-13" target="6f7RqT7ciBoBhrbUa6Md-2" edge="1">
          <mxGeometry relative="1" as="geometry" />
        </mxCell>
        <mxCell id="6f7RqT7ciBoBhrbUa6Md-27" style="edgeStyle=orthogonalEdgeStyle;rounded=0;orthogonalLoop=1;jettySize=auto;html=1;entryX=0;entryY=0.75;entryDx=0;entryDy=0;" parent="1" source="6f7RqT7ciBoBhrbUa6Md-13" target="6f7RqT7ciBoBhrbUa6Md-3" edge="1">
          <mxGeometry relative="1" as="geometry" />
        </mxCell>
        <mxCell id="6f7RqT7ciBoBhrbUa6Md-13" value="Creata account and save data" style="text;html=1;align=center;verticalAlign=middle;whiteSpace=wrap;rounded=1;fillColor=#f5f5f5;fontColor=#333333;strokeColor=#666666;" parent="1" vertex="1">
          <mxGeometry x="140" y="210" width="260" height="30" as="geometry" />
        </mxCell>
        <mxCell id="6f7RqT7ciBoBhrbUa6Md-14" value="&amp;nbsp;&amp;nbsp;" style="text;html=1;align=center;verticalAlign=middle;whiteSpace=wrap;rounded=1;fillColor=#f5f5f5;fontColor=#333333;strokeColor=#666666;" parent="1" vertex="1">
          <mxGeometry x="140" y="240" width="260" height="30" as="geometry" />
        </mxCell>
        <mxCell id="6f7RqT7ciBoBhrbUa6Md-15" value="Create ads for investments" style="text;html=1;align=center;verticalAlign=middle;whiteSpace=wrap;rounded=1;fillColor=#f5f5f5;fontColor=#333333;strokeColor=#666666;" parent="1" vertex="1">
          <mxGeometry x="140" y="270" width="260" height="30" as="geometry" />
        </mxCell>
      </root>
    </mxGraphModel>
  </diagram>
</mxfile>
